<svg xmlns="http://www.w3.org/2000/svg"
  xmlns:xlink="http://www.w3.org/1999/xlink" width="24" height="24" viewBox="0 0 24 24">
  <defs>
    <style>.a,.b,.d{fill:none;}.a{clip-rule:evenodd;}.b{fill-rule:evenodd;}.c{clip-path:url(#a);}.d{stroke:rgba(112,112,112,0.01);stroke-width:0px;}.e{fill:#fff;}</style>
    <clipPath id="a">
      <path class="a" d="M0,0H24V24H0Z"/>
    </clipPath>
  </defs>
  <g transform="translate(0 24)">
    <g transform="translate(0 -24)">
      <g class="c">
        <path class="d" d="M0,0H24V24H0Z"/>
      </g>
      <g class="c">
        <path class="e" d="M12,4.5A11.827,11.827,0,0,0,1,12a11.817,11.817,0,0,0,22,0A11.827,11.827,0,0,0,12,4.5ZM12,17a5,5,0,1,1,5-5A5,5,0,0,1,12,17Zm0-8a3,3,0,1,0,3,3A3,3,0,0,0,12,9Z"/>
      </g>
    </g>
  </g>
</svg>
